<?xml version="1.0" encoding="UTF-8" standalone="no"?>
<svg width="512" height="512" viewBox="0 0 512 512" fill="none" xmlns="http://www.w3.org/2000/svg">
  <!-- Background Circle -->
  <circle cx="256" cy="256" r="240" fill="#1E3A8A" />
  <circle cx="256" cy="256" r="220" fill="#2563EB" />
  
  <!-- Code Brackets -->
  <path d="M160 150L100 256L160 362" stroke="#F59E0B" stroke-width="24" stroke-linecap="round" stroke-linejoin="round" />
  <path d="M352 150L412 256L352 362" stroke="#F59E0B" stroke-width="24" stroke-linecap="round" stroke-linejoin="round" />
  
  <!-- Connecting Line (Collaboration) -->
  <path d="M200 380L312 132" stroke="#FBBF24" stroke-width="16" stroke-linecap="round" />
  
  <!-- Central Connection Point -->
  <circle cx="256" cy="256" r="40" fill="#1E3A8A" />
  <circle cx="256" cy="256" r="30" fill="#F59E0B" />
  
  <!-- Binary Code Elements -->
  <circle cx="180" cy="200" r="12" fill="#FBBF24" />
  <circle cx="220" cy="200" r="12" fill="#FBBF24" />
  <circle cx="180" cy="240" r="12" fill="#FBBF24" />
  <circle cx="220" cy="240" r="12" fill="#FBBF24" opacity="0.5" />
  <circle cx="180" cy="280" r="12" fill="#FBBF24" opacity="0.5" />
  <circle cx="220" cy="280" r="12" fill="#FBBF24" />
  
  <circle cx="292" cy="200" r="12" fill="#FBBF24" />
  <circle cx="332" cy="200" r="12" fill="#FBBF24" opacity="0.5" />
  <circle cx="292" cy="240" r="12" fill="#FBBF24" opacity="0.5" />
  <circle cx="332" cy="240" r="12" fill="#FBBF24" />
  <circle cx="292" cy="280" r="12" fill="#FBBF24" />
  <circle cx="332" cy="280" r="12" fill="#FBBF24" opacity="0.5" />
</svg>
